<?xml version="1.0" standalone="no"?>
<!DOCTYPE svg PUBLIC "-//W3C//DTD SVG 20010904//EN"
 "http://www.w3.org/TR/2001/REC-SVG-20010904/DTD/svg10.dtd">
<svg version="1.0" xmlns="http://www.w3.org/2000/svg"
 width="512.000000pt" height="512.000000pt" viewBox="0 0 512.000000 512.000000"
 preserveAspectRatio="xMidYMid meet">

<g transform="translate(0.000000,512.000000) scale(0.100000,-0.100000)"
fill="#000000" stroke="none">
<path d="M415 5110 c-183 -38 -330 -170 -391 -350 -18 -53 -19 -134 -19 -2200
0 -2066 1 -2147 19 -2200 52 -154 168 -274 322 -332 l59 -23 2155 0 2155 0 59
23 c154 58 270 178 322 332 18 53 19 134 19 2200 0 2066 -1 2147 -19 2200 -52
154 -168 274 -322 332 l-59 23 -2130 1 c-1172 1 -2148 -2 -2170 -6z m1505
-1254 l0 -73 -54 -6 c-112 -11 -205 -75 -248 -171 -22 -49 -23 -63 -29 -401
-6 -390 -8 -405 -77 -511 -21 -32 -59 -77 -85 -100 l-46 -41 43 -36 c24 -20
62 -64 85 -98 72 -107 74 -121 80 -514 6 -338 7 -352 29 -401 43 -96 136 -160
248 -171 l54 -6 0 -75 0 -75 -74 6 c-145 11 -297 109 -364 235 -53 101 -55
113 -61 487 -6 340 -7 351 -30 402 -43 95 -139 160 -252 170 l-59 6 0 72 0 72
61 6 c113 10 206 74 253 176 20 43 21 68 27 396 4 239 10 363 18 390 39 122
128 228 239 284 73 37 118 49 190 50 l52 1 0 -74z m1480 45 c121 -46 223 -147
271 -269 22 -54 23 -75 29 -407 4 -195 11 -364 17 -381 41 -121 142 -199 274
-211 l59 -6 0 -72 0 -72 -66 -6 c-37 -4 -85 -16 -108 -28 -60 -30 -122 -95
-148 -153 -21 -49 -22 -65 -28 -406 -6 -335 -7 -358 -28 -410 -68 -170 -218
-282 -394 -297 l-68 -6 0 75 0 75 55 6 c111 11 196 71 241 169 l29 63 6 355
c4 303 8 362 22 400 29 75 63 125 124 181 l59 54 -41 35 c-59 50 -103 110
-134 182 l-26 63 -5 355 -5 355 -32 67 c-24 50 -43 75 -80 102 -52 39 -127 66
-180 66 l-33 0 0 76 0 77 68 -6 c37 -3 92 -15 122 -26z m-465 -348 c-58 -170
-233 -684 -389 -1143 l-284 -835 -89 -3 -90 -3 97 283 c53 156 229 671 390
1146 l293 862 88 0 88 0 -104 -307z"/>
</g>
</svg>
